<svg xmlns="http://www.w3.org/2000/svg" version="1.1" xmlns:xlink="http://www.w3.org/1999/xlink" viewBox="0 0 200 200"><rect width="200" height="200" fill="url('#gradient')"></rect><defs><linearGradient id="gradient" gradientTransform="rotate(0 0.5 0.5)"><stop offset="0%" stop-color="#c7597b"></stop><stop offset="100%" stop-color="#9a8962"></stop></linearGradient></defs><g><g fill="#d7d9da" transform="matrix(3.7408269771176235,0,0,3.7408269771176235,4.982604221558773,126.5829494177697)" stroke="#4d5258" stroke-width="0.95"><path d="M1.07-14.22L5.58-14.22L8.75-4.33L11.91-14.22L16.43-14.22L16.43 0L12.99 0L12.99-3.32L13.32-10.12L9.88 0L7.62 0L4.17-10.13L4.50-3.32L4.50 0L1.07 0L1.07-14.22ZM22.26-14.22L22.26 0L18.84 0L18.84-14.22L22.26-14.22ZM32.43 0L29.92-5.02L28.07-5.02L28.07 0L24.64 0L24.64-14.22L30.23-14.22Q32.76-14.22 34.19-13.10Q35.62-11.97 35.62-9.92L35.62-9.92Q35.62-8.44 35.01-7.46Q34.41-6.48 33.13-5.88L33.13-5.88L36.10-0.15L36.10 0L32.43 0ZM28.07-11.57L28.07-7.67L30.23-7.67Q31.21-7.67 31.70-8.18Q32.20-8.69 32.20-9.61Q32.20-10.53 31.70-11.05Q31.20-11.57 30.23-11.57L30.23-11.57L28.07-11.57ZM49.73-7.47L49.73-6.82Q49.73-4.74 48.96-3.13Q48.18-1.53 46.76-0.67Q45.34 0.20 43.53 0.20Q41.71 0.20 40.30-0.64Q38.90-1.47 38.11-3.03Q37.32-4.58 37.29-6.59L37.29-6.59L37.29-7.39Q37.29-9.48 38.05-11.08Q38.82-12.68 40.25-13.54Q41.68-14.41 43.51-14.41L43.51-14.41Q45.31-14.41 46.73-13.55Q48.14-12.70 48.93-11.11Q49.72-9.52 49.73-7.47L49.73-7.47ZM46.24-6.76L46.24-7.41Q46.24-9.53 45.53-10.63Q44.82-11.73 43.51-11.73L43.51-11.73Q40.93-11.73 40.78-7.86L40.78-7.86L40.77-6.82Q40.77-4.73 41.46-3.60Q42.16-2.48 43.53-2.48L43.53-2.48Q44.82-2.48 45.53-3.58Q46.23-4.69 46.24-6.76L46.24-6.76Z"></path></g></g></svg>